<?xml version="1.0" encoding="UTF-8" standalone="no"?>
<svg
   version="1.0"
   width="68.000000pt"
   height="68.000000pt"
   viewBox="0 0 68.000000 68.000000"
   preserveAspectRatio="xMidYMid meet"
   id="svg18"
   sodipodi:docname="pluginIcon.svg"
   inkscape:version="1.1.2 (0a00cf5339, 2022-02-04)"
   xmlns:inkscape="http://www.inkscape.org/namespaces/inkscape"
   xmlns:sodipodi="http://sodipodi.sourceforge.net/DTD/sodipodi-0.dtd"
   xmlns="http://www.w3.org/2000/svg"
   xmlns:svg="http://www.w3.org/2000/svg">
  <defs
     id="defs22" />
  <sodipodi:namedview
     id="namedview20"
     pagecolor="#ffffff"
     bordercolor="#666666"
     borderopacity="1.0"
     inkscape:pageshadow="2"
     inkscape:pageopacity="0.0"
     inkscape:pagecheckerboard="0"
     inkscape:document-units="pt"
     showgrid="false"
     inkscape:zoom="4.7977941"
     inkscape:cx="72.533333"
     inkscape:cy="39.601533"
     inkscape:window-width="1920"
     inkscape:window-height="1012"
     inkscape:window-x="1920"
     inkscape:window-y="0"
     inkscape:window-maximized="1"
     inkscape:current-layer="g16"
     inkscape:snap-text-baseline="false" />
  <metadata
     id="metadata2">
Created by potrace 1.16, written by Peter Selinger 2001-2019
</metadata>
  <g
     inkscape:groupmode="layer"
     id="layer2"
     inkscape:label="Layer 2">
    <rect
       style="fill:#ffffff;stroke-width:0.749395"
       id="rect45807"
       width="67.333511"
       height="67.472534"
       x="0.34040624"
       y="0.20071147" />
  </g>
  <g
     inkscape:groupmode="layer"
     id="layer1"
     inkscape:label="Layer 1">
    <g
       transform="matrix(0.1,0,0,-0.1,0.47881348,68.321229)"
       fill="#000000"
       stroke="none"
       id="g16">
      <path
         d="M 54,626 C 38,614 34,597 31,521 28,423 39,388 79,375 c 11,-3 21,-16 23,-28 4,-31 36,-33 66,-4 23,22 38,26 109,29 103,4 113,13 120,101 7,77 -2,130 -23,152 -22,21 -290,22 -320,1 z m 306,-35 c 5,-11 10,-50 10,-87 0,-93 -11,-104 -107,-104 -60,0 -80,-4 -101,-21 l -26,-20 -8,20 c -4,12 -14,21 -22,21 -34,0 -46,29 -46,109 0,46 5,82 12,89 8,8 55,12 145,12 121,0 133,-2 143,-19 z"
         id="path4" />
      <path
         d="m 457,572 c -15,-15 -27,-32 -27,-37 0,-14 52,-65 66,-65 7,0 14,6 17,13 7,20 78,-24 96,-60 22,-44 31,-41 31,11 0,59 -33,107 -88,126 -23,8 -42,20 -42,27 0,22 -25,15 -53,-15 z"
         id="path8" />
      <path
         d="M 304,339 C 288,321 285,302 285,223 285,102 296,90 405,90 c 64,0 77,-3 103,-25 40,-33 72,-33 72,0 0,14 5,25 10,25 6,0 22,11 35,25 22,22 25,32 25,105 0,78 -10,116 -34,132 -6,4 -74,8 -152,8 -131,0 -142,-2 -160,-21 z m 304,-21 c 13,-13 17,-155 4,-175 -4,-6 -20,-16 -35,-22 -15,-6 -27,-17 -27,-26 0,-21 -13,-19 -35,5 -15,17 -31,20 -96,20 -100,0 -109,8 -109,101 0,111 -2,109 153,109 90,0 137,-4 145,-12 z"
         id="path10" />
      <path
         d="m 40,246 c 0,-59 33,-107 88,-126 23,-8 42,-20 42,-27 0,-22 25,-15 53,15 34,35 34,42 -1,75 -31,29 -48,34 -55,15 -7,-21 -78,23 -96,59 -22,44 -31,41 -31,-11 z"
         id="path14" />
      <text
         xml:space="preserve"
         style="font-style:normal;font-weight:normal;font-size:134.398px;line-height:1.25;font-family:sans-serif;letter-spacing:0px;word-spacing:0px;fill:#000000;fill-opacity:1;stroke:none;stroke-width:8.39988"
         x="97.01506"
         y="-451.47736"
         id="text6756"
         transform="scale(0.98816797,-1.0119737)"><tspan
           sodipodi:role="line"
           id="tspan6754"
           style="font-style:normal;font-variant:normal;font-weight:normal;font-stretch:normal;font-size:134.398px;font-family:'Finger Paint';-inkscape-font-specification:'Finger Paint';stroke-width:8.39988"
           x="97.01506"
           y="-451.47736">Olá</tspan></text>
      <text
         xml:space="preserve"
         style="font-style:normal;font-weight:normal;font-size:110px;line-height:1.25;font-family:sans-serif;letter-spacing:0px;word-spacing:0px;fill:#000000;fill-opacity:1;stroke:none;stroke-width:7.5"
         x="324.94714"
         y="-187.87248"
         id="text34292"
         transform="scale(1,-1)"><tspan
           sodipodi:role="line"
           id="tspan34290"
           style="font-style:normal;font-variant:normal;font-weight:normal;font-stretch:normal;font-size:110px;font-family:'Finger Paint';-inkscape-font-specification:'Finger Paint';stroke-width:7.5"
           x="324.94714"
           y="-187.87248">Hello</tspan></text>
    </g>
  </g>
</svg>
