<?xml version="1.0" standalone="no"?>
<!DOCTYPE svg PUBLIC "-//W3C//DTD SVG 20010904//EN"
 "http://www.w3.org/TR/2001/REC-SVG-20010904/DTD/svg10.dtd">
<svg version="1.0" xmlns="http://www.w3.org/2000/svg"
 width="68.000000pt" height="68.000000pt" viewBox="0 0 68.000000 68.000000"
 preserveAspectRatio="xMidYMid meet">
<metadata>
Created by potrace 1.16, written by Peter Selinger 2001-2019
</metadata>
<g transform="translate(0.000000,68.000000) scale(0.100000,-0.100000)"
fill="#000000" stroke="none">
<path d="M54 626 c-16 -12 -20 -29 -23 -105 -3 -98 8 -133 48 -146 11 -3 21
-16 23 -28 4 -31 36 -33 66 -4 23 22 38 26 109 29 103 4 113 13 120 101 7 77
-2 130 -23 152 -22 21 -290 22 -320 1z m306 -35 c5 -11 10 -50 10 -87 0 -93
-11 -104 -107 -104 -60 0 -80 -4 -101 -21 l-26 -20 -8 20 c-4 12 -14 21 -22
21 -34 0 -46 29 -46 109 0 46 5 82 12 89 8 8 55 12 145 12 121 0 133 -2 143
-19z"/>
<path d="M80 515 c0 -33 4 -45 15 -45 8 0 15 7 15 15 0 8 5 15 10 15 6 0 10
-7 10 -16 0 -11 6 -15 19 -11 10 2 25 0 34 -4 10 -6 21 -4 31 7 9 8 16 10 16
4 0 -6 15 -10 35 -8 19 1 37 -1 41 -5 11 -11 44 13 44 32 0 29 -28 47 -51 33
-16 -11 -19 -9 -19 8 0 15 -7 20 -25 20 -20 0 -25 -5 -25 -27 0 -26 -1 -26
-14 -7 -13 16 -18 17 -35 6 -19 -11 -21 -10 -21 8 0 26 -20 26 -27 0 -3 -11
-9 -20 -13 -20 -4 0 -10 9 -13 20 -10 37 -27 21 -27 -25z"/>
<path d="M457 572 c-15 -15 -27 -32 -27 -37 0 -14 52 -65 66 -65 7 0 14 6 17
13 7 20 78 -24 96 -60 22 -44 31 -41 31 11 0 59 -33 107 -88 126 -23 8 -42 20
-42 27 0 22 -25 15 -53 -15z"/>
<path d="M304 339 c-16 -18 -19 -37 -19 -116 0 -121 11 -133 120 -133 64 0 77
-3 103 -25 40 -33 72 -33 72 0 0 14 5 25 10 25 6 0 22 11 35 25 22 22 25 32
25 105 0 78 -10 116 -34 132 -6 4 -74 8 -152 8 -131 0 -142 -2 -160 -21z m304
-21 c13 -13 17 -155 4 -175 -4 -6 -20 -16 -35 -22 -15 -6 -27 -17 -27 -26 0
-21 -13 -19 -35 5 -15 17 -31 20 -96 20 -100 0 -109 8 -109 101 0 111 -2 109
153 109 90 0 137 -4 145 -12z"/>
<path d="M335 263 c5 -10 13 -37 19 -60 11 -45 36 -59 36 -20 0 12 4 28 9 35
6 11 9 9 14 -7 5 -19 12 -20 98 -18 52 1 93 5 92 10 -2 4 -3 23 -3 43 0 35 -1
35 -37 32 -35 -3 -39 -6 -44 -38 l-6 -35 -2 38 -1 38 -60 -2 c-51 -2 -61 -5
-66 -23 -7 -21 -7 -20 -15 2 -5 12 -16 22 -25 22 -12 0 -14 -5 -9 -17z"/>
<path d="M40 246 c0 -59 33 -107 88 -126 23 -8 42 -20 42 -27 0 -22 25 -15 53
15 34 35 34 42 -1 75 -31 29 -48 34 -55 15 -7 -21 -78 23 -96 59 -22 44 -31
41 -31 -11z"/>
</g>
</svg>
